<?xml version="1.0" standalone="no"?><!DOCTYPE svg PUBLIC "-//W3C//DTD SVG 1.1//EN" "http://www.w3.org/Graphics/SVG/1.1/DTD/svg11.dtd"><svg t="1574818243398" class="icon" viewBox="0 0 1024 1024" version="1.1" xmlns="http://www.w3.org/2000/svg" p-id="2913" xmlns:xlink="http://www.w3.org/1999/xlink" width="200" height="200"><defs><style type="text/css"></style></defs><path d="M341.862 222.553l168.711 94.638a6.332 6.332 0 0 0 2.929 0.778 5.635 5.635 0 0 0 2.929-0.778l168.707-94.638a6.055 6.055 0 0 0 3.051-5.199 5.922 5.922 0 0 0-3.051-5.198L516.43 117.569a5.895 5.895 0 0 0-5.803 0l-168.766 94.58a6.018 6.018 0 0 0 0 10.404z m343.276 271.96L516.43 399.872a5.895 5.895 0 0 0-5.803 0l-168.772 94.641a6 6 0 0 0-2.99 5.199c0 0.177 0.058 0.341 0.058 0.536a8.468 8.468 0 0 0-0.059 1.314v358.95a14.404 14.404 0 0 0 7.295 12.496l160.345 89.917a14.572 14.572 0 0 0 6.993 1.854 13.937 13.937 0 0 0 6.994-1.854l160.345-89.917a14.203 14.203 0 0 0 7.294-12.496V501.565a9.28 9.28 0 0 0-0.058-1.314c0-0.177 0.058-0.341 0.058-0.536a6.007 6.007 0 0 0-2.986-5.205z m-185.924 431.47l-131.755-73.896V519.264l131.707 73.895v332.82h0.058z m160.344-73.896l-131.71 73.896V593.1l131.71-73.895v332.881z" p-id="2914"></path><path d="M438.835 358.86a5.922 5.922 0 0 0-3.051-5.198l-168.64-94.641a5.891 5.891 0 0 0-5.802 0L92.556 353.645a6.052 6.052 0 0 0-3.052 5.199c0 0.12 0.058 0.177 0.058 0.297s-0.058 0.177-0.058 0.297c0 0.177 0.058 0.341 0.058 0.536 0 0.361-0.058 0.781-0.058 1.26V720.2a14.404 14.404 0 0 0 7.295 12.496l160.344 89.917a14.575 14.575 0 0 0 6.994 1.854 13.937 13.937 0 0 0 6.994-1.854l7.278-4.126V452.236L435.705 364a5.72 5.72 0 0 0 3.106-5.144zM249.85 785.726L118.142 711.83V379.006l131.71 73.896v332.823z m687.643-426.277c0-0.12-0.058-0.178-0.058-0.297s0.058-0.178 0.058-0.297a6.4 6.4 0 0 0-0.177-1.495v-0.12a6.315 6.315 0 0 0-2.81-3.645l-158.31-88.78-10.403-5.803c-0.478-0.24-0.956-0.417-1.434-0.601a6.397 6.397 0 0 0-1.495-0.178 5.65 5.65 0 0 0-2.932 0.779l-20.746 11.656L591.22 353.65a5.765 5.765 0 0 0-2.81 3.645 4.468 4.468 0 0 0-0.238 1.553 5.922 5.922 0 0 0 3.051 5.199L748.52 452.29v366.315l7.294 4.127a14.575 14.575 0 0 0 6.994 1.853 13.937 13.937 0 0 0 6.994-1.853l160.345-89.918a14.203 14.203 0 0 0 7.294-12.496V361.236a9.28 9.28 0 0 0-0.058-1.314 1.191 1.191 0 0 0 0.116-0.478z m-28.64 352.382l-131.704 73.892V452.84l131.703-73.895V711.83z" p-id="2915"></path></svg>